<svg id="wave" style="transform:rotate(180deg); transition: 0.3s" viewBox="0 0 1440 140" version="1.1" xmlns="http://www.w3.org/2000/svg"><defs><linearGradient id="sw-gradient-0" x1="0" x2="0" y1="1" y2="0"><stop stop-color=" #133f26" offset="0%"></stop><stop stop-color=" #133f26" offset="100%"></stop></linearGradient></defs><path style="transform:translate(0, 0px); opacity:1" fill="url(#sw-gradient-0)" d="M0,0L60,7C120,14,240,28,360,46.7C480,65,600,89,720,84C840,79,960,47,1080,35C1200,23,1320,33,1440,49C1560,65,1680,89,1800,91C1920,93,2040,75,2160,72.3C2280,70,2400,84,2520,95.7C2640,107,2760,117,2880,114.3C3000,112,3120,98,3240,88.7C3360,79,3480,75,3600,77C3720,79,3840,89,3960,84C4080,79,4200,61,4320,44.3C4440,28,4560,14,4680,16.3C4800,19,4920,37,5040,49C5160,61,5280,65,5400,72.3C5520,79,5640,89,5760,79.3C5880,70,6000,42,6120,37.3C6240,33,6360,51,6480,53.7C6600,56,6720,42,6840,44.3C6960,47,7080,65,7200,63C7320,61,7440,37,7560,42C7680,47,7800,79,7920,88.7C8040,98,8160,84,8280,72.3C8400,61,8520,51,8580,46.7L8640,42L8640,140L8580,140C8520,140,8400,140,8280,140C8160,140,8040,140,7920,140C7800,140,7680,140,7560,140C7440,140,7320,140,7200,140C7080,140,6960,140,6840,140C6720,140,6600,140,6480,140C6360,140,6240,140,6120,140C6000,140,5880,140,5760,140C5640,140,5520,140,5400,140C5280,140,5160,140,5040,140C4920,140,4800,140,4680,140C4560,140,4440,140,4320,140C4200,140,4080,140,3960,140C3840,140,3720,140,3600,140C3480,140,3360,140,3240,140C3120,140,3000,140,2880,140C2760,140,2640,140,2520,140C2400,140,2280,140,2160,140C2040,140,1920,140,1800,140C1680,140,1560,140,1440,140C1320,140,1200,140,1080,140C960,140,840,140,720,140C600,140,480,140,360,140C240,140,120,140,60,140L0,140Z"></path></svg>